<?xml version="1.0" encoding="utf-8"?>
<?xml-stylesheet type="text/xsl" href="rss1.xsl"?>
<rss version="2.0" xmlns:atom="http://www.w3.org/2005/Atom" xmlns:content="http://purl.org/rss/1.0/modules/content/" xmlns:dc="http://purl.org/dc/elements/1.1/" xmlns:media="http://search.yahoo.com/mrss/">
<channel>
 <title>Getty</title>
 <link>http://www.gettyimg.com/</link>
 <atom:link href="http://www.gettyimg.com/" rel="self" type="application/rss+xml" />

 
                <item>
                <title><![CDATA[【HD Live Performances】WEB-DL - Ice Spice - Wireless (2023) 1080p iPLAYER WEB-DL AAC2.0 H.264-MELODiE]]></title>
                <link><![CDATA[https://sharemania.us/threads/ice-spice-wireless-2023-1080p-iplayer-web-dl-aac2-0-h-264-melodie.224161/]]></link>
                <description><![CDATA[<article>
<blockquote class="messageText SelectQuoteContainer ugc baseHtml">
<div style="text-align: center"><b><span style="color: #ff0000">Ice Spice - Wireless (2023) 1080p iPLAYER WEB-DL AAC2.0 H.264-MELODiE</span></b><br>
<br>
<span style="font-size: 12px">The freshest new rap tunes from this emerging New York talent </span>​</div><br>
<div style="text-align: center"><span style="color: #59b300">Requested by <a href="https://sharemania.us/members/40976/" class="username" data-user="40976, @jakewain">@jakewain</a></span><br>
<br>
<img src="https://images2.imgbox.com/90/be/3cZkm44H_o.jpg" class="bbCodeImage LbImage" alt="[​IMG]" data-url="https://images2.imgbox.com/90/be/3cZkm44H_o.jpg" style=""> <br>
<div style="text-align: center">​</div>
<div class="ToggleTriggerAnchor bbCodeSpoilerContainer">
<button type="button" class="button bbCodeSpoilerButton ToggleTrigger Tooltip JsOnly" data-target="> .SpoilerTarget"><span>Spoiler: <span class="SpoilerTitle">MediaInfo</span></span></button>
<div class="SpoilerTarget bbCodeSpoilerText">General<br>
Complete name : Ice Spice - Wireless (2023) 1080p iPLAYER WEB-DL AAC2.0 H.264-MELODiE.mp4<br>
Format : MPEG-4<br>
Format profile : Base Media<br>
Codec ID : isom (isom/iso2/avc1/mp41)<br>
File size : 870 MiB<br>
Duration : 10 min 8 s<br>
Overall bit rate mode : Variable<br>
Overall bit rate : 12.0 Mb/s<br>
Collection : Wireless: 2023<br>
Album : Wireless: 2023<br>
Album/Performer : BBC TV<br>
Track name : Ice Spice<br>
Grouping : Music,Hip Hop, RnB &amp; Dancehall<br>
Performer : BBC Radio 1Xtra<br>
Composer : BBC iPlayer<br>
Genre : Music<br>
ContentType : TV Show<br>
Description : The freshest new rap tunes from this emerging New York talent<br>
Recorded date : UTC 2023-07-09 07:19:21<br>
Tagged date : UTC 2023-07-09 07:19:21<br>
Copyright : 2023 British Broadcasting Corporation, all rights reserved<br>
Cover : Yes<br>
Lyrics : The freshest new rap tunes from this emerging New York talent / / PLAY: <a href="https://www.bbc.co.uk/iplayer/episode/p0f4pb2l" target="_blank" class="externalLink" rel="nofollow">https://www.bbc.co.uk/iplayer/episode/p0f4pb2l</a> / / INFO: <a href="https://www.bbc.co.uk/programmes/p0f4pb2l" target="_blank" class="externalLink" rel="nofollow">https://www.bbc.co.uk/programmes/p0f4pb2l</a><br>
Comment : The freshest new rap tunes from this emerging New York talent<br>
HDVideo : Yes<br>
Part_ID : p0f4pb2l<br>
TVNetworkName : BBC Radio 1Xtra<br>
LongDescription : The freshest new rap tunes from this emerging New York talent / / PLAY: <a href="https://www.bbc.co.uk/iplayer/episode/p0f4pb2l" target="_blank" class="externalLink" rel="nofollow">https://www.bbc.co.uk/iplayer/episode/p0f4pb2l</a> / / INFO: <a href="https://www.bbc.co.uk/programmes/p0f4pb2l" target="_blank" class="externalLink" rel="nofollow">https://www.bbc.co.uk/programmes/p0f4pb2l</a><br>
<br>
Video<br>
ID : 1<br>
Format : AVC<br>
Format/Info : Advanced Video Codec<br>
Format profile : High@L4.2<br>
Format settings : CABAC / 4 Ref Frames<br>
Format settings, CABAC : Yes<br>
Format settings, Reference : 4 frames<br>
Codec ID : avc1<br>
Codec ID/Info : Advanced Video Coding<br>
Duration : 10 min 8 s<br>
Bit rate mode : Variable<br>
Bit rate : 11.8 Mb/s<br>
Maximum bit rate : 12.0 Mb/s<br>
Width : 1 920 pixels<br>
Height : 1 080 pixels<br>
Display aspect ratio : 16:9<br>
Frame rate mode : Constant<br>
Frame rate : 50.000 FPS<br>
Color space : YUV<br>
Chroma subsampling : 4:2:0<br>
Bit depth : 8 bits<br>
Scan type : Progressive<br>
Bits/(Pixel*Frame) : 0.114<br>
Stream size : 860 MiB (99%)<br>
Color range : Limited<br>
Color primaries : BT.709<br>
Transfer characteristics : BT.709<br>
Matrix coefficients : BT.709<br>
Codec configuration box : avcC<br>
<br>
Audio<br>
ID : 2<br>
Format : AAC LC<br>
Format/Info : Advanced Audio Codec Low Complexity<br>
Codec ID : mp4a-40-2<br>
Duration : 10 min 8 s<br>
Bit rate mode : Variable<br>
Bit rate : 128 kb/s<br>
Maximum bit rate : 161 kb/s<br>
Channel(s) : 2 channels<br>
Channel layout : L R<br>
Sampling rate : 48.0 kHz<br>
Frame rate : 46.875 FPS (1024 SPF)<br>
Compression mode : Lossy<br>
Stream size : 9.29 MiB (1%)<br>
Language : English<br>
Default : Yes<br>
Alternate group : 1</div>
</div><div style="text-align: center">
<div class="bbCodeBlock bbCodeVfcHH HiddenContent">
<div class="attribution type">Hidden Content:</div>
<blockquote>You must either reply or click 'Like' to see the hidden information contained here.</blockquote>
</div></div></div>
<div class="messageTextEndMarker">&nbsp;</div>
</blockquote>
</article>]]></description>
                <author><![CDATA[melodie]]></author>
                </item>

                </channel></rss>